<svg xmlns="http://www.w3.org/2000/svg" width="11.346" height="9.338" viewBox="0 0 11.346 9.338">
  <path id="Path_188" data-name="Path 188" d="M18.118,9.157a4.685,4.685,0,0,1-1.148.327c.185-.031.455-.365.564-.5a2.112,2.112,0,0,0,.381-.694c.01-.02.017-.045,0-.06a.066.066,0,0,0-.061,0,5.836,5.836,0,0,1-1.36.521.091.091,0,0,1-.093-.025,1.078,1.078,0,0,0-.12-.122,2.4,2.4,0,0,0-.659-.4,2.3,2.3,0,0,0-1.01-.163,2.42,2.42,0,0,0-.959.271,2.462,2.462,0,0,0-.773.632,2.375,2.375,0,0,0-.462.926,2.508,2.508,0,0,0-.024.977c.007.054,0,.062-.047.054A7.261,7.261,0,0,1,7.669,8.522c-.055-.062-.085-.062-.129,0a2.369,2.369,0,0,0,.4,2.8c.092.087.186.174.287.253a2.39,2.39,0,0,1-.9-.253c-.054-.034-.082-.014-.087.048a1.443,1.443,0,0,0,.015.268,2.4,2.4,0,0,0,1.478,1.911,1.445,1.445,0,0,0,.3.092,2.692,2.692,0,0,1-.885.027c-.064-.012-.089.02-.064.082a2.489,2.489,0,0,0,1.858,1.557c.085.015.169.015.253.034,0,.008-.01.008-.015.015a2.94,2.94,0,0,1-1.269.673,4.546,4.546,0,0,1-1.928.247c-.1-.016-.125-.014-.154,0s0,.042.03.069c.132.087.265.164.4.238a6.367,6.367,0,0,0,1.289.515,6.863,6.863,0,0,0,6.664-1.558,6.99,6.99,0,0,0,1.844-5.1c0-.073.087-.114.138-.153a4.489,4.489,0,0,0,.907-.943.287.287,0,0,0,.06-.181v-.01c0-.03,0-.021-.047,0" transform="translate(-6.819 -8.037)" fill="#f9f9f9"/>
</svg>
